<?xml version="1.0" encoding="UTF-8"?>
<svg width="63mm" height="63mm" version="1.1" viewBox="0 0 63 63" xml:space="preserve" xmlns="http://www.w3.org/2000/svg" xmlns:xlink="http://www.w3.org/1999/xlink"><defs><radialGradient id="a" cx="96.72" cy="180.4" r="64.42" gradientTransform="matrix(.9313 0 0 .9313 2.217 11.94)" gradientUnits="userSpaceOnUse"><stop stop-color="#e2ecbb" offset=".5744"/><stop stop-color="#eef4d7" stop-opacity="0" offset="1"/></radialGradient></defs><g transform="translate(-96.79 -10.98)"><g transform="matrix(.525 0 0 .525 79.84 -52.02)"><circle cx="92.29" cy="180" r="60" fill="url(#a)" style="paint-order:markers stroke fill"/><g transform="matrix(.8719 0 0 .9767 -1.187 -30.96)"><path d="m62.33 200.8 11.25-13.24 10.26-8.559 22.01-9.339 2.503 2.382-2.021 87.9-9.619 0.9963-7.238 1.328-9.717-0.5843 2.658-4.486 8.201-6.561 4.503-7.781 3.118-11.32 3.018-7.29-12.7 3.123-0.5881 1.578c-3.434 3.087-6.309 5.658-9.767 8.719l-7.39 1.812 2.593-4.622-5.123 2.799-2.594 3.179-7.464 0.6533-9.996-2.256 5.848-8.174 4.899-12.94 2.739-12.67z" fill="#d4aa00" stroke="#000" stroke-width=".2646px"/><path d="m102.6 160.4c-1.188 0.2953-2.218 0.9989-3.37 1.349 0.5423 3.198 1.189 6.575-0.3664 9.54-0.5147 0.072-1.635 0.606-1.709 0.6513 1.008-2.671 1.111-6.731 0.0046-9.307-1.038 0.0307-2.472 0.3123-3.74 1.062-0.2492 0.9595 0.646 3.765 0.718 4.746 0.1248 1.699 0.6908 4.906-3.02 6.044 0.892-1.96 1.017-7.243 0.3134-8.254-0.4829-0.694-0.3761-1.097-0.4874-1.475-0.281 0.1343-0.6592-0.1238-0.937 0.0146-1.179 0.587-2.328 1.211-3.447 1.871 0.2521 0.4521 1.44 1.999 1.582 4.132 0.1382 2.074 0.1955 4.759-1.707 6.197 0.4266-1.722-0.5335-10.74-2.063-9.946-1.026 0.6665-2.121 1.31-3.086 2.045-0.08518 0.0648-0.4875 0.4298-0.1986 0.7862 0.3774 1.013 1.066 0.4209 1.592 2.046 1.011 1.472 1.426 5.858-0.2936 7.574-0.3273-5.387-2.14-7.897-2.657-9.082-0.2169 0.1786-0.7843 0.0209-0.9976 0.2031-0.6904 0.5903-1.701 1.017-2.353 1.646 2.548 3.421 2.788 6.691 2.747 9.242-0.4045 0.1886-0.9671 0.6157-1.435 1.07 0.2594-4.027-1.716-7.751-2.554-8.889-0.3809 0.185-0.667 0.0382-0.9776-0.0222 0 0-2.049 1.767-2.866 2.858 1.875 0.3809 4.535 5.932 3.915 7.935-0.05712 0.2467-1.097 1.158-1.097 1.158-0.7832-3.584-2.175-6.557-3.792-8.117-1.239 0.6987-2.145 1.871-2.698 3.035 2.878 2.93 2.927 4.53 3.787 7.104 0.3593 1.076-0.4155 1.296-0.9298 1.8-0.5092-1.797-0.8616-5.597-3.831-8.176-0.7614 1.047-1.715 1.957-2.436 3.069 4.167 3.589 4.23 7.887 3.776 8.197-0.4379 0.2992-1.234-5.038-5.179-6.824-1.173 0.7022-2.341 2.049-3.147 3.261 0.9024 0.1963 1.5 0.8722 2.329 0.9793 2.006 0.2594 4.43 4.825 3.58 5.144-0.6671 0.2506-1.466-4.194-6.76-4.714-0.6107 1.145-1.334 2.232-2.234 3.164 3.128 0.7167 7.505 3.096 6.546 4.623l-1.787 2.829c-1.015 13.35-4.26 25.51-13.49 37.83l-0.2256 1.514c2.315 0.0255 4.415 1.188 11.41 1.893 1.07 0.618 5.392-0.1395 7.53-0.9656 1.291-1.269 2.142-2.405 3.033-3.039 1.274-0.9078 1.775-1.724 2.434-2.077-1.215 2.022-2.049 1.83-3.007 3.554 0.2225 0.3004 0.5792 0.7945 1.026 0.7217 2.422-0.3945 4.954-1.588 6.713-1.949 0.7555-0.1552 0.9019 0.1943 1.424-0.1316 8.648-5.404 7.076-11.45 21.3-12.43-2.024 4.978-3.442 10.04-4.645 14.94-0.7914 3.218-2.612 6.4-4.96 8.886-0.6791 0.7192-0.9682 1.283-1.365 1.866-1.223 0.0343-4.994 3.472-10.02 7.066-0.5682 0.406-0.8297 0.9764-1.406 1.421 1.113 0.1597 1.206-0.7285 3.228-0.3588-0.5841 1.038-1.75 0.8985-2.053 2.033 1.906 1.058 14 1.841 19.15-0.3119h32.37c6.181 0 11.51-0.7904 15.99-2.371 7.696-3.123 12.52-7.765 15.05-14.51 0.9854-2.697 1.478-5.44 1.478-8.23 0-3.441-0.6719-6.509-2.016-9.206-3.8-8.382-13.12-12.08-20.96-14.23 3.078-0.5739 6.174-1.898 8.331-2.929 7.021-3.226 9.96-11.14 10.08-17.16 0-15.81-11.73-23.71-35.2-23.71-7.175-0.0751-8.339 0-15.19 0-1.859 0.0748-2.685 0.1831-5.225 1.1 1.653-2.945 1.281-7.312 1.062-9.108-0.0196-0.4814-0.5063-0.6891-0.5778-0.6713zm3.901 10.05-0.1197 2.192c-0.2777-0.0397-0.5376-5e-3 -0.8488-0.1853l0.0246-1.519c0.4168-0.3544 0.6718-0.4055 0.9438-0.4882zm-1.554 0.5382-0.0599 1.913-0.7871 0.269 0.1694-1.803zm-1.313 0.5321c-0.1306 1.002-0.2428 2.22-1.009 2.079l0.0455-1.839zm-1.636 0.4444-0.1096 1.824c-1.103 0.5787-1.69 0.6834-2.342 0.8468l0.1894-1.903 1.006-0.1694c-0.0612 0.3769-0.1672 0.8511-0.1024 1.157 0.1225 0.5792 0.663 0.5832 0.6668-0.5968 8.1e-4 -0.226 0.1243-0.5828 0.148-0.8998zm-3.019 1.046-0.07498 1.948-0.6772 0.2321 0.1024-1.943zm-1.276 0.6079c0.0685 0.6065-0.1832 1.24-0.3189 1.863-0.4239 0.2234-0.8583 0.5045-1.192 0.2391l0.594-1.714zm16.76 0.6236h4.092c7.704 0 13.57 1.627 17.6 4.882s6.046 7.997 6.046 14.23c0 5.486-1.747 9.717-5.24 12.69-3.404 2.883-8.241 4.324-14.51 4.324h-10.94v-31.94c0-2.79 0.9854-4.185 2.956-4.185zm-18.48 0.1534-0.558 2.013-1.402 0.5645 0.2127-1.799zm-2.491 1.146-0.1295 1.594c-0.3562 0.4589-0.9829 0.7097-1.574 0.9883l-0.0109-1.845zm-2.392 0.9865 0.0898 2.013-1.215 0.4684-0.07062-2.033zm-1.813 0.7919c0.04822 0.7054-0.02165 1.461 0.267 2.064-0.3491 0.2206-0.5311 0.4928-1.097 0.6467-0.2441-0.7562-0.03819-1.828-0.456-2.077zm6.734 0.7655c7.354 0.223 2.204 17.58-7.872 15.76-5.571-0.0191-4.991 4.52-4.394 5.477 1.915 3.07 6.08-0.6519 2.771-1.771 4.089-0.5278 7.314 5.842 6.244 14.34-0.6939 5.509-4.835 9.775-11.5 14.42-2.052-1.342-7.859-1.135-7.002-10.97-9.297 7.72-6.347 15.9-0.5774 18.3-4.599 3.375-12.36 5.147-18.42 3.142l1.268-2.494c1.448-0.4492 2.56-0.5523 3.621-0.5702 0.8665-0.0146 1.661 0.3095 2.678 0.1192-0.5952-0.5099-1.179-0.5612-1.422-1.067-0.4049-0.843-1.508-1.432-3.087-1.695 3.868-9.52 5.229-22.03 7.426-29.39 8.64-12.84 17.14-17.15 25.62-22.15 1.906-1.04 3.444-1.463 4.648-1.426zm-8.409 0.1565 0.05994 2.292-1.093 0.4691-0.0582-1.76zm-1.793 1.275 0.06975 1.684c-0.1452 0.4862-0.348 0.6078-0.548 0.7474l-0.03989-2.182zm11.37 0.6877c-8.319 1.628-24.8 9.939-15.8 17.46l0.4776-0.534c-0.314-4.01 6.841-8.214 10.55-5.06 0.3819 0.3249 0.7161 0.0719 0.9438 0.1293 2.699-4.774 1.466-7.758 3.826-12zm-12.54 0.0299 0.02986 2.063-1.091 0.3529-0.01526-1.798zm-1.704 1.046c-0.08542 0.7347 0.1538 1.704-0.2589 2.202l-0.7919 0.3939 0.0046-1.978zm12.59 0.6774c-0.5111 0.6861-2.001 1.49-2.75 2.063 0.6867-0.9085 1.628-1.621 2.75-2.063zm-14.3 0.4285 0.01984 1.395 0.3487 0.3688-1.186 0.8468-0.2988-1.046 0.1992-0.2291c-0.8143-0.865 0.5321-0.9199 0.9168-1.335zm12.06 0.0798c0.04823-1e-3 0.09834 5e-3 0.1513 0.0198-0.7945 0.4863-1.77 2.152-3.169 2.411 0.6625-1.02 1.445-1.018 1.937-1.525 0.4958-0.5106 0.7426-0.8968 1.08-0.9061zm1.743 0.6984c0.07722 2e-3 0.1545 0.0115 0.2317 0.029-0.4397 0.4593-0.883 0.9161-1.505 1.245l0.578-1.066c0.2317-0.1467 0.4632-0.2136 0.6949-0.2084zm-4.212 0.3378c-0.3921 0.3861-0.8927 0.4899-1.166 1.186-0.6657 1.124-1.661 1.387-2.571 1.724 0.7367-0.8854 1.558-1.518 2.371-2.172 0.3132-0.7929 0.8818-0.6 1.365-0.7374zm-11.34 0.0299 0.1593 2.053-1.086 0.6777-0.3686-1.803zm15.18 1.096c-0.4091 0.5264-0.8477 0.9986-1.415 1.235 0.2816-0.5891 0.7222-0.9511 1.415-1.235zm-17.02 0.3786 0.3189 1.714-0.7374 0.5879-0.3089-1.784zm16.8 0.6975v0.6177l-1.694 1.495c0.2676-0.7254 0.6885-1.44 1.694-2.112zm-18.18 0.3588c0.2866 0.5091 0.2692 0.9927 0.3487 1.485-0.3215 0.4343-0.6143 0.9059-1.116 1.106-0.2497-0.4387-0.2804-0.9243-0.289-1.415 0.3492-0.3922 0.5-0.8008 1.056-1.176zm10.3 0.0996c-0.3539 0.887-1.008 1.349-1.674 1.793 0.1035-0.4724 0.8814-1.54 1.674-1.793zm-1.764 0.538c-0.3655 1.009-0.9585 1.997-1.614 2.979 0.03539-1.191 0.5342-2.359 1.614-2.979zm9.287 0.9168-0.3387 0.8769-1.036 0.6378-0.05973-0.4983zm-19.47 0.4386 0.3089 1.186-0.6875 0.5081c-0.3019-0.7422-0.08771-1.27 0.3786-1.694zm8.26 0.0497c-0.1868 0.9789-0.3639 1.902-0.837 2.152l-0.07956-1.216c0.26-0.4261 0.6092-0.629 0.9166-0.9366zm6.875 0.4983c-0.6743 0.5276-1.505 0.995-1.863 1.644l-0.568-0.0101c0.4119-0.9052 1.492-1.206 2.431-1.634zm1.893 0.269c-1.375 0.225-1.714 0.8514-2.84 1.295 1.035-1.118 1.248-1.232 2.84-1.295zm-4.364 0.3387c-0.5771 0.9022-1.24 1.369-1.843 1.475 0.4363-0.7383 0.9736-1.179 1.843-1.475zm4.524 0.1894c-0.01504 0.4971-0.6395 0.5954-1.335 0.6476 0.2554-0.4161 0.7555-0.597 1.335-0.6476zm-18.48 0.0101 0.6079 0.7173-0.7374 0.4185zm20.11 0.0399-0.2991 0.8767-0.6975-0.2191zm-20.88 1.016 0.06975 0.8869-0.6378 0.7075-0.1197-1.006zm12.34 0c-0.3066 0.6795-0.806 1.194-1.485 1.555 0.175-0.7297 0.7064-1.357 1.485-1.555zm-3.657 0.0399c0.2818 0.4933 0.339 1.131 0.2491 1.863 0.1545 0.188 0.4637 0.3932 0.8568 0.6077-0.2066 0.2827-0.4845 0.6012-0.7971 0.9368-0.8014-1.52-0.3106-2.313-0.3089-3.408zm-0.6676 0.5382c-0.2597 0.7178-0.3723 1.374 0.1218 2.379 0.208 0.423-0.1384 0.7544 0.5257 1.029-0.0743 0.2358-0.1288 0.4717-0.4085 0.7075l-0.03989 1.235-0.3886-0.4185c5.48e-4 -0.3551 0.164-0.6288 0.2592-0.9366-0.4561-1.137-1.126-3.585-0.06975-3.996zm2.142 0.447c0.04641 3e-3 0.09374 0.0197 0.1397 0.0512 0.1001 0.1982-0.06255 0.8341-0.4285 0.7274-0.233-0.3261-0.02048-0.7504 0.2428-0.7779 0.01519-1e-3 0.03052-2e-3 0.04599-6.8e-4zm-11.55 0.4497 0.2888 0.8071-0.6177 0.5382-0.3189-0.7374zm-1.136 1.255 0.2592 0.6576-0.7274 0.7474-0.279-1.066zm-1.345 0.8967 0.1593 1.365-0.4882 0.6975-0.5879-1.156zm-1.285 1.614 0.3089 1.305-1.036 1.136c-0.1476-0.6557-0.8203-1.018 0.2092-2.332zm24.01 1.555c0.4613 0.0948 0.9737 0.1262 1.534 1.076 0.4787 0.8704 0.5794 1.681 0.6576 2.351-0.2246-1.147-1.297-2.384-2.192-3.428zm-25.62 0.2988c0.4609 1.138 0.01896 2.231-0.6779 2.718l-0.1393-1.981zm27.53 0.4383c0.3944 0.4484 1.024 0.0531 1.136 1.515l0.0399 2.252zm-28.97 1.335c0.03161 0.7682-0.01381 1.635 0.3387 1.993l-0.269 0.6079c-0.486-0.2442-0.7821-0.8005-1.006-1.475zm30.76 0.2391 0.8967 1.574c-0.0194 2.047-0.322 4.009-0.5979 5.979-0.5256-1.524-0.2075-5.016-0.2988-7.553zm-16.06 0.4102c-5.581 3.111-10.96-2.135-11.5 11.51l0.5323 0.1242c1.316-1.919 3.176-2.568 4.62-4.48 0.6882-0.911 1.375-4.06-1.479-3.486 1.271-1.559 3.377-1.226 2.882 2.192 0.7956-0.7866 1.74-2.386 2.651-3.314 0.9562-0.974 1.72-1.49 2.297-2.543zm-16.19 0.8154c0.4969 0.7475 1.287 1.659 1.365 2.172-0.6943-0.5416-1.224-1.203-1.714-1.893zm33.66 1.405 0.6179 1.016c-0.3814 2.628-1.008 4.561-1.754 6.158 0.5594-2.285 1.144-4.554 1.136-7.174zm-33.96 0.1593 0.9266 0.857c0.3559 0.3786 0.4376 0.8119 0.5183 1.245-0.8639-0.6942-1.652-1.39-1.445-2.103zm9.301 1.919c0.01905-3.8e-4 0.0379-4.6e-4 0.05645 0 0.3562 8e-3 0.6162 0.1674 0.6234 0.4516 0.03751 1.482-1.444 1.912-2.24 2.678l-0.2537-0.4229c-0.1309-0.4001-0.1905-0.8316 0.01417-1.381 0.3898-0.9069 1.21-1.314 1.8-1.325zm25.69 0.0944c0.5359 0.5878-1.238 5.893-1.973 6.855zm-35.08 0.01 0.4283 0.0101 1.026 0.7773-0.3089 0.2988zm0.1059 1.076c0.4896 0.513 0.8987 1.02 0.9203 1.515l-1.206-0.4587zm35.4 1.007c-0.1342 2.825-1.818 5.717-2.591 6.975 0.1186-0.6669 0.9228-2.399 1.545-3.977 0.5876-1.491 0.9966-2.845 1.046-2.997zm-35.8 0.6774 1.245 0.548-0.2391 0.6676-1.046-0.7274zm36.48 0.1992c0.5363 1.099 0.5196 1.528-0.1426 2.631-0.2654 0.4418-0.5234 1.763-0.7343 2.212-1.046 1.69-2.595 3.998-3.268 4.285 0.3158-0.7911 0.732-1.587 1.395-2.625 1.047-1.639 1.985-4.326 2.75-6.502zm-36.58 1.165 1.015 0.5074-0.09852 0.5776-1.17-0.2818zm37.5 1.048c-0.4778 1.402-0.59 2.724-1.614 4.245-3.236 4.251-4.353 5.358-4.982 5.74 1.919-2.868 5.362-6.098 5.877-9.033 0.09162-0.522 0.1381-0.7518 0.7193-0.9508zm-37.75 0.3758 1.057 0.3522-0.296 0.7186-0.9724-0.4508zm-0.06343 1.374 0.7256 0.3806-0.1408 0.6975-0.9301-0.4368zm38.66 0.7714c0.3025 0.2799-0.0477 0.5565-0.5281 0.7472 0.01067-0.3082 0.1464-0.5715 0.5281-0.7472zm0.4782 0.4782 0.4085 0.8071c-0.5393 0.0304-1.508 0.6508-2.262 0.9765 0.3078-0.6074 0.9079-1.203 1.853-1.784zm-39.43 0.2671c0.1839-5e-3 0.3711 0.0193 0.5608 0.1951l-0.02114 0.8174-0.8878-0.1127 0.02114-0.8878c0.1075 4e-3 0.2166-9e-3 0.327-0.012zm40.27 1.118 0.1593 0.3886c-1.282 0.3608-2.564 1.078-3.846 1.714 0.4818-0.6908 1.342-1.909 3.687-2.103zm-40.88 0.3529 0.8808 0.1057-0.1973 1.233-0.9582-0.1057zm37.41 0.2849c-0.302 0.3963-0.3672 0.7543-0.6367 1.141-0.7174 1.028-1.609 2.076-2.681 3.214l-2.84 3.018-0.9961 0.7184c0.1845-0.6734 0.3384-0.7889 1.08-1.443 1.921-1.694 4.05-4.364 5.202-5.789 0.5087-0.6291 0.7135-0.6782 0.8725-0.8592zm4.135 0.279c-0.9777 0.718-2.279 1.024-3.537 1.385 1.17-0.6863 2.135-1.356 3.537-1.385zm0.0905 0.6766c0.0595-1e-3 0.1192-6.8e-4 0.1785 1e-3 -0.2939 0.2554-0.6741 0.3892-1.136 0.4085 0.1353-0.2987 0.5405-0.3997 0.9573-0.4096zm9.022 0.4111c4.479 0 6.242 0.093 8.929 0.279 2.687 0.093 5.778 0.5114 9.271 1.255 3.494 0.7439 6.226 1.813 8.196 3.208 1.971 1.395 3.628 3.441 4.972 6.137 1.433 2.604 2.15 5.812 2.15 9.625 0 3.999-0.7166 7.346-2.15 10.04-1.344 2.697-3.314 4.742-5.912 6.137-2.598 1.302-5.375 2.232-8.331 2.79-2.956 0.558-6.45 0.8368-10.48 0.8368-3.314 0-3.733-0.3718-4.898-1.116-1.165-0.8369-1.747-2.371-1.747-4.603zm-51.16 0.131 1.057 0.0987-0.2677 0.9724-1.085-0.2114zm42.47 0.1066 0.3688 0.3387c-3.346 0.9422-6.307 2.518-9.207 4.195 1.793-2.085 6.472-4.473 8.838-4.534zm-0.8224 1.232c0.1203-3e-3 0.2607 4e-3 0.4039 0.0135 0.9227 0.8743 1.882 1.733 2.681 2.66-1.233-0.8279-2.333-1.675-3.438-2.521 8e-3 -0.1113 0.1528-0.1475 0.3533-0.153zm-42.23 0.2978 1.271 0.0124-0.31 0.6201-1.085 0.0704zm40.83 0.3198c0.235 0.2369 0.4618 0.4612 0.6827 0.6761-0.3975-0.1704-0.813-0.3391-1.257-0.5028 0.1531-0.122 0.3472-0.1764 0.5744-0.1733zm-1.5 0.5765c1.014-4e-3 3.679 1.506 6.849 4.231l-0.595 0.0153c-1.997-1.472-3.898-2.987-6.434-4.226 0.0526-0.0138 0.1131-0.0208 0.1807-0.0211zm-27.08 0.1027c-0.8895 8.01 4.172 10.99 7.75 12.23l-1.945 1.381c-8.347-2.117-9.24-9.715-5.806-13.61zm26.23 0.1916c0.6386 0.2564 0.8636 0.4884 1.206 0.7274-0.5813-0.0708-1.031 3e-3 -1.813-0.289 0.01835-0.1461 0.3148-0.2922 0.6079-0.4383zm-37.87 0.0503c0.12-6.8e-4 0.2492 3e-3 0.3878 0.0118l-0.09177 0.6622-1.571 0.0987c0.04453-0.5164 0.4353-0.7654 1.275-0.7727zm36.57 0.6371c2.806 0.4293 5.805 2.178 7.035 3.248l-1.431-0.0588c-1.282-1.237-4.145-2.419-6.182-2.871zm-1.086 0.578c2.956 0.4867 5.733 2.284 5.998 2.7-1.54-0.7017-3.269-1.648-5.183-2.103-0.3035 0.0133-0.3322 0.3329-0.1604 0.3638 1.523 0.1511 3.762 1.572 4.098 1.829l-0.8172 0.0299c-1.471-0.8809-2.789-1.601-5.292-1.745l0.1999-0.3278 1.066 0.02c0.3511 0.0797 0.4572-0.1657 0.2092-0.2692l-0.6077-0.0697zm-35.41 1e-3c-0.2851 0.635-0.2681 1.161-0.08435 1.628l-1.874-0.0281c0.04036-0.6612 0.2357-1.483 1.959-1.599zm45.23 0.2672c0.1487 0.01 0.2494 0.0996 0.2112 0.379-0.3905 0.0143-0.4359-0.0783-0.3588-0.3686 0.0277-5e-3 0.0549-8e-3 0.0811-0.01 0.0229-1e-3 0.0452-1e-3 0.0665-4.3e-4zm-11.31 1.195c1.786 0.0362 3.177 0.6912 4.609 1.327l-1.275 0.3387-3.936-1.485 0.2391-0.1794c0.1227-3e-3 0.2436-3e-3 0.3627-1e-3zm-1.117 0.602c0.1301-1.1e-4 0.2981 0.0186 0.5251 0.0669l2.82 1.106-0.578 0.1694c-1.196-0.361-2.71-0.6168-3.487-1.116 0.2809-0.0551 0.3304-0.2258 0.7206-0.2262zm-34.15 0.0514c0.2593-0.0124 0.5511 0.0235 0.8677 0.1249l-0.06343 0.6271c-1.093-0.1486-1.521 0.0499-2.043 0.2044-0.02291-0.4473 0.4612-0.9194 1.239-0.9564zm33.01 0.703c0.9289 0.2521 2.108 0.3966 2.784 0.7572-1.015 0.1238-2.15-0.0196-3.428-0.4782zm-32.96 0.6081c0.1441 6.8e-4 0.2995 0.0112 0.4671 0.0329l-0.5848 1.282-1.691 0.0985c0.08194-0.5158 0.4162-1.421 1.809-1.414zm31.62 0.5672c0.02878 1e-3 0.05787 5e-3 0.0874 0.0105 0.5255 0.1055 0.7141 0.3029 1.056 0.4584-0.7821 0.2183-1.558 0.302-2.322 0.0896 0.3947-0.1754 0.7462-0.5806 1.178-0.5584zm-0.8819 1.083c0.06812-1e-3 0.1388-2.3e-4 0.2121 3e-3 -0.6007 0.3902-1.334 0.7426-2.063 1.096 0.3748-0.4938 0.8287-1.079 1.851-1.1zm13.26 0.1829 0.4285 0.1495c-0.0335 0.7104-0.2684 1.398-0.5382 2.082zm-0.5879 0.0896c0.0604 1.403-0.0893 2.54-0.7173 3.069l0.01-2.8zm-44.17 0.0226c0.1799-4e-5 0.3785 6e-3 0.5977 0.0181l-0.2677 1.191-1.973 0.0493c0.0427-0.9467 0.3838-1.258 1.643-1.258zm16.69 0.4477c0.469 0.041 0.9677 0.3952 1.325 0.754-0.1929 0.0506-0.4366 0.0433-0.7609-0.0562-0.4222-0.2973-0.5878-0.5492-0.5637-0.6977zm-17.5 1.273c0.2855-1e-3 0.6089 0.0265 0.9717 0.087l-0.3945 0.9582c-0.8622-0.0201-1.624 0.1024-2.304 0.2537-0.03839-0.7497 0.4898-1.294 1.727-1.299zm19.13 0.0247c0.7412 0.013 1.278 0.4165 1.924 0.6118-0.3787 0.104-0.5909 0.285-1.388 0.1975-0.7804-0.19-0.94-0.6197-0.8666-0.7892 0.1152-0.0158 0.2252-0.0219 0.3311-0.0201zm23.84 0.2051c0.4448 2.405 0.0119 2.63-0.279 3.208l-0.0201-2.77zm-20.87 0.6535 1.247 0.1127c-1.452 1.632-2.229 1.048-3.023 0.5214zm7.975 0.7117-1.066 0.8095-0.07978-0.289zm-29.66 0.0351c-0.3445 0.339-0.4893 0.7088-0.592 1.085-0.8453 0.0825-1.68 0.1896-2.395 0.5497 0.1788-0.9516 0.7714-1.635 2.987-1.635zm28.02 0.7322c-0.2558 0.5152-0.1354 0.9282-1.425 1.724v-1.086c0.3841-0.3104 0.7996-0.5868 1.425-0.6376zm-5.161 0.0571-0.4721 0.4296c-0.2556 0.0541-0.3631-0.0581-0.4721-0.1689 0.1893-0.1265 0.4042-0.245 0.9442-0.2607zm18.84 0.1022c0.2088 0.8912 0.1561 1.766-0.05973 2.631-0.149-0.506-0.3603-0.882-0.3387-1.754 0.09348-0.2796-0.02864-0.4326 0.3984-0.8769zm-15.69 0.6476-0.112 1.704-0.4566 0.269c0.04231-0.5086 0.02442-0.887-0.2186-1.315 0.193-0.3348 0.483-0.5085 0.7873-0.6578zm-27.03 0.2428c0.07411-1e-3 0.1499-1e-3 0.2278 6.8e-4 -0.338 0.2881-0.6893 0.5692-1.212 0.747-0.7852 0.0329-1.317 0.0681-1.501 0.0634 0.6706-0.3804 1.373-0.7889 2.485-0.8111zm25.86 0.684c0.02666 0.5524-0.2036 1.118 0.1395 1.654l-0.847 0.7174c-0.1968-0.5181-0.1558-1.036-0.2193-1.555 0.302-0.3068 0.59-0.6843 0.9268-0.8169zm15.9 0.3387c0.3492 0.7818 0.4766 1.316 0.1194 2.132-0.1431-0.7495-0.1889-1.463-0.1194-2.132zm-42.14 0.0771c-0.1143 0.2349-0.1854 0.4698-0.4226 0.7047-0.9161 0.3209-1.762 0.7398-2.762 0.944 0.1312-0.4125 0.4218-0.7365 0.7186-1.057 0.822-0.3165 1.644-0.4597 2.466-0.5918zm24.67 0.9094c0.1458 0.9027 0.3331 1.85-0.269 1.953l-0.3287-1.614zm-25.64 0.5562c0.03075 0.187 0.03521 0.3827-0.2114 0.6622-0.818 0.275-1.644 0.5664-2.445 0.8455 0.8815-0.8351 1.785-1.111 2.656-1.508zm24.5 0.0815c0.1955 1.114 0.2131 2.098-0.7472 2.371l-0.1495-1.784zm18.2 0.269c0.02113 0.8666 0.1277 1.759-0.09961 2.551-0.193-0.5327-0.3725-1.105-0.279-2.471zm-19.63 0.5778c0.01663 0.7543 0.1496 1.497-0.3387 2.302l-0.8568 0.3189c0.2708-0.8691 0.5262-1.732 0.4584-2.471zm-1.504 0.2193c-0.03431 0.8377 0.0451 1.657-0.4684 2.571l-0.837 0.3487c0.2924-0.8554 0.4609-1.749 0.4085-2.71zm-22.35 0.346c-0.08683 0.3942-0.2881 0.7859-0.9582 1.029-0.6437 0.1935-1.237 0.184-1.846 0.2396 0.895-0.7008 1.856-0.9426 2.804-1.268zm20.76 0.1223c0.06958 0.9381-0.03789 1.889-0.7075 2.88-0.4564-0.0349-1.019 0.1645-1.534 0.2592 0.7269-0.9506 1.582-1.865 1.584-3.019zm-1.495 0.8468c-0.15 0.3516-0.2035 0.6429-0.548 1.116l-1.355 1.515c0.5536-1.05 1.08-2.158 1.903-2.631zm23.4 0.2592c0.6006 1.938 0.5622 2.175 0.02004 3.966-0.4932-1.511-0.4834-2.827-0.02004-3.966zm-44.73 0.5099c0.2525-5e-3 0.505 0.0452 0.7574 0.0373-0.4071 0.4224-1.134 0.6252-2.142 0.6343 0.308-0.1922 0.4486-0.351 0.9301-0.5778 0.1515-0.0672 0.303-0.0906 0.4545-0.0937zm0.5037 0.9673-2.332 1.846-1.275-0.31c1.365-1.676 2.49-1.379 3.607-1.536zm0.5473 0.206c0.06839 6.8e-4 0.1262 0.0287 0.1713 0.09 0.3668 0.2986-0.6506 1.416-1.409 2.029-0.3583-0.0955-0.7774-0.2099-0.9863-0.3241 0.7501-0.4829 1.745-1.801 2.224-1.795zm0.9887 0.3437c0.362 0.0503 0.5952 0.124 1.141 0.1408-0.3889 0.6339-0.6858 1.245-1.283 1.931l-1.303-0.1691c0.4892-0.6007 1.172-1.018 1.444-1.902zm49.79 0.0883c0.4739 0.0483 0.4687 0.6794-1.264 2.744-1.89 3.558-3.369 7.483-7.229 9.286l-3.495 0.2537 1.691-1.776c4.572 0.1256 6.844-6.696 7.586-7.839 0.4412-0.6797 0.663-1.596 1.323-2.124 0.3609-0.2675 1.019-0.5825 1.388-0.5449zm-37.48 3e-3c-0.3938 0.4777-1.054 0.2816-1.381 1.43l-0.9724 0.5356c0.2669-0.7544 0.4909-0.8298-0.09852-1.416zm-10.65 0.3311h0.944c-0.2344 0.8365-0.5863 1.556-1.325 1.888l-0.8597-0.1127c0.4809-0.5607 0.9942-1.106 1.24-1.776zm1.564 0.1692 1.043 0.0142c-0.1887 0.7352-0.5403 1.392-1.198 1.902l-0.9865-0.0203c0.4354-0.6192 0.9787-1.258 1.141-1.895zm1.494 0 1.86 0.0423c0.01933 0.1998 0.04102 0.3901 0.04228 0.6622-0.4598 0.5681-0.7233 1.358-1.578 1.48 0.1963-0.4547 0.6084-1.252 0.9654-1.867l-0.4649-0.1129c-0.5556 1.014-1.049 1.568-1.585 1.853 0.3266-0.6615 0.9447-1.226 0.7611-2.057zm3.659 0.02c0.5127 0.0212 1.041 0.1988 1.288 0.6563-0.09978 0.3859-0.3725 0.6934-0.6766 0.9865l-0.5776 0.0915c3.35e-4 -0.521 0.7512-1.371-0.1833-1.458-0.1421 0.082-0.3296 0.9355-0.5072 1.62l-1.296 0.3241c0.2572-0.7606 0.7794-1.014 0.6905-1.79-0.02569-0.2016 0.4714-0.4067 1.045-0.4307 0.07172-3e-3 0.1447-3e-3 0.218-2.2e-4zm33.46 0.3706c0.2169 0.8766 0.7185 1.629 0.558 2.67-0.3532 1.343-0.2654 3.168-1.116 3.966-0.1107-1.256-0.7427-2.562-0.1197-3.746l0.279 1.574c0.0065 0.816 0.3907 0.3321 0.4386-0.2393 0.1161-1.451-0.4234-2.933-0.0399-4.225zm-1.415 5.062 0.2592 2.571-0.837 0.558-0.01982-2.411zm8.709 2.69-0.279 0.8272c-1.078 0.0822-1.905 0.3437-2.73 0.6278l0.3786-0.6975c0.838-0.395 1.713-0.6547 2.631-0.7574zm-10 0.299c0.0068 0.3563 0.1943 0.6961-0.05972 1.076l-0.6576 0.7773zm-0.8568 0.6576-0.5979 1.594c-0.3314 0.899-0.9124 1.049-1.415 1.435zm10.08 0.5329c0.1235-2e-5 0.2268 8e-3 0.303 0.0251-0.0324 0.2973-0.0199 0.6242-0.3586 0.7173-1.142-0.1704-2.157 0.1688-3.169 0.5181 0.504-0.849 2.36-1.26 3.224-1.26zm-2.174 2.115c-0.1226 0.1633-0.2217 0.3176-0.2533 0.4314l-1.036 0.0101c0.1142-0.2091 0.694-0.3052 1.29-0.4414zm-0.9998 0.8446c0.1622 1e-3 0.3369 0.0303 0.5273 0.0948l-0.7572 0.837-0.6975-0.6177c0.2736-0.1847 0.5706-0.3168 0.9275-0.3141zm-5.489 0.4756c0.1031-4e-3 0.2114 0.023 0.308 0.1077-0.08561 0.0709 0.05597 0.4581-0.257 0.6489-0.2697-0.1776-0.3937-0.3115-0.4791-0.5495-4.22e-4 -0.0361 0.2013-0.1976 0.4281-0.2071zm-0.9876 0.1027c0.4804 0.2198 0.1938 0.5304 0.1508 0.7999-0.3844-0.2068-0.4727-0.5539-0.6548-0.786zm1.728 0.0128c0.4199-0.0142 0.703 0.6213 0.1936 0.8588-0.3-0.0607-0.4078-0.7774-0.279-0.847 0.02902-7e-3 0.05745-0.0109 0.08545-0.0118zm1.17 0.148c0.07559 0.4877-0.06884 0.8061-0.3381 1.029l0.08457-0.944zm-4.272 0.0558c0.09303-5e-3 0.1892 0.0117 0.2986 0.1131 0.3535 0.2252 0.291 0.388 0.4087 0.5778-0.5567-0.0943-0.8679-0.3297-0.9863-0.6764 0.09627 0.0163 0.186-0.01 0.279-0.0146zm4.988 0.1399c0.01628-3e-3 0.05157 0.0131 0.07346 0.0155 0.07629 0.3148 0.08455 0.4503-0.3549 0.4612-0.1042-0.2018 0.2727-0.0822 0.2727-0.4664 0-6e-3 0.0034-9e-3 0.0087-0.0103zm-6.107 0.1125c0.547 3e-3 0.7752 0.2901 0.7895 0.7006-0.5265-0.0906-0.7262-0.3585-0.7895-0.7006zm-0.7104 0.044c0.3358 0.1064 0.6105 0.453 0.5918 0.8455-0.08945 0.2957-0.1626 0.2328-0.2395 0.2537-0.08171-0.0531-0.123-0.1516-0.09852-0.3241-2.827-0.3498-0.4513-0.6896-0.2537-0.7751zm7.398 0.3804c0.3275 0.0686 0.4776 0.2204 0.5497 0.4087l-0.6482 0.4791c-0.5818 0.0912-0.6252-0.0865-0.6905-0.2535 0.1456-0.2848 0.4314-0.4821 0.789-0.6343zm1.127 1.212c0.2659 0 0.1302 0.3213 0.0704 0.4933l-0.09852 0.31 0.1973 0.3383 0.01417 0.9724c-0.4064-0.153-0.9582-0.2136-1.099-0.5355 0.3216-0.0927 0.4799-0.1629 0.827-0.4087-0.357-0.3068-0.7139-0.3716-1.071-0.2535-0.1448-0.1191-0.1248-0.24-0.0098-0.437 0.4134-0.3948 0.7507-0.4791 1.17-0.4791zm-10.29 0.0285c0.1131 0.0592 0.13 0.1405 0.0704 0.2396-0.1998 0.2799-0.4386 0.0908-0.6622 0.0846 0.07668-0.2367 0.318-0.2977 0.5918-0.3241zm4.728 0.3679c0.1764-1e-3 0.3526 8e-3 0.5284 0.0264 2.517 0.1288 4.001 1.74 1.888 3.495-1.522 1.618-7.585 1.147-10.26 1.212 0.5902-0.3319 2.411-2.13 2.99-2.578 0.0616-0.1562 0.2211 0.3315 0.2988 0.2884 1.142-1.508 2.849-2.433 4.554-2.444zm-5.348 0.4209 0.1973 0.296c-0.5348 0.3168-1.324 0.3428-2.029 0.4652 0.2598-0.3688 0.7642-0.6298 1.832-0.7612zm-1.184 1.099c-0.5486 0.3446-1.079 0.5923-1.733 0.7047 0.5078-0.3352 1.018-0.6679 1.733-0.7047zm11.66 0.415c0.1381 0.0116 0.2793 0.0726 0.4255 0.2049 0.07808 0.3721 0.04468 0.6733-0.1691 0.8597l-0.6622-0.9721c0.1329-0.0661 0.2678-0.104 0.4059-0.0924zm-0.6314 0.9802 0.7893 0.7184c-0.2957 0.6136-0.4469 0.6851-0.6452 0.9336-0.0855-0.4804-0.05154-1.024-0.3695-1.427zm-12.43 0.0142c-0.1806 0.2532-0.0077 0.4414-0.5495 0.7609-0.4821 0.3125-0.8646 0.2265-1.296 0.3381 0.5859-0.4841 1.158-1.024 1.846-1.099zm-1.593 1.499c-0.09551 0.2213-0.06878 0.4264-0.5379 0.6975l-1.834 1.156c0.4424-0.6214 1.07-1.4 2.371-1.853zm13.13 0.0512s-0.0791 0.642 0.09547 0.9665c0.07227 0.1342 0.1722 0.33 0.1722 0.33l-0.8126 0.2918c-0.2582-0.7671 0.1801-1.185 0.5449-1.588zm-1.015 0.7047-0.2321 1.08-0.7121 0.1321 0.4933-1.001zm-2.015 0.5353-0.6201 0.7186c-0.7066 0.5826-0.9006 0.3112-1.325 0.4229 0.4861-0.4673 0.759-1.049 1.945-1.142zm0.6639 0.0813c0.0013 0.174-0.1189 0.3905-0.1574 0.5663-0.06542 0.2987-0.4226 0.2231-0.6334 0.3389zm-2.454 0.0172-0.5637 0.7751c-0.5651 0.54-0.7792 0.2464-1.155 0.3381-0.04801 0 1.536-1.113 1.719-1.113zm-1.395 0.1831-0.8455 0.7328c-0.8887 0.3373-1.029 0.202-1.466 0.2537 0.6385-0.4167 1.283-0.8295 2.311-0.9865zm-5.505 0.1609c-0.4645 0.3187-0.9028 0.7001-1.435 0.8568l-0.4584-0.1794c0.8836-0.5794 1.401-0.6459 1.893-0.6774zm0.8523 0.5294c-0.1592 0.1274-0.3156 0.242-0.4538 0.3076l-0.5778-0.06c0.2711-0.1376 0.6534-0.1915 1.032-0.2476z" fill="#450" stroke-width="3.423"/></g></g></g></svg>
